Coordinates
version=1
nRows=12
nColumns=32
inDegrees=yes

Units are S.I. units (second, meters, Newtons, ...)
If the header above contains a line with 'inDegrees', this indicates whether rotational values are in degrees (yes) or radians (no).

endheader
time	pelvis_tilt	pelvis_list	pelvis_rotation	pelvis_tx	pelvis_ty	pelvis_tz	hip_flexion_r	hip_adduction_r	hip_rotation_r	knee_angle_r	knee_adduction_r	med_cond_adduction_r	lat_cond_adduction_r	patella_r_constrained_knee_angle	ankle_angle_r	subtalar_angle_r	mtp_angle_r	hip_flexion_l	hip_adduction_l	hip_rotation_l	knee_angle_l	knee_adduction_l	med_cond_adduction_l	lat_cond_adduction_l	patella_l_constrained_knee_angle	ankle_angle_l	subtalar_angle_l	mtp_angle_l	lumbar_extension	lumbar_bending	lumbar_rotation
      0.98500000	     11.11222794	      4.02904309	     -2.87811051	      0.62005631	      0.95195065	      0.20685798	      9.92756418	    -24.86098929	    -33.08554795	    -70.70461243	     -6.66161014	      0.00000000	      0.00000000	     -1.23402828	     -7.29324273	     12.94258832	     -0.00000000	    -17.86035103	      2.28837780	    -20.53326021	      9.64158264	      9.44496700	     -0.00000000	     -0.00000000	      0.16827736	    -11.11050585	     11.21789147	     -0.00000000	    -25.06550696	     -5.35693186	     -2.50725316
      0.99000000	     11.03702231	      3.92528642	     -2.53215886	      0.62618970	      0.95212089	      0.20610638	     10.48736409	    -24.63123243	    -32.85009640	    -70.05729371	     -5.88684385	     -0.00000000	      0.00000000	     -1.22273044	     -6.71982334	     13.44245508	      0.00000000	    -18.24481102	      2.14849307	    -20.68611639	      9.65116136	      9.46268804	      0.00000000	      0.00000000	      0.16844454	    -10.77600262	     11.91508751	     -0.00000000	    -25.04028065	     -5.07602119	     -2.67055135
      0.99500000	     10.94244944	      3.84823330	     -2.20895159	      0.63225960	      0.95220987	      0.20541074	     11.07229300	    -24.41817984	    -32.43448187	    -69.34952575	     -4.97024469	     -0.00000000	     -0.00000000	     -1.21037756	     -6.16920490	     13.84651104	      0.00000000	    -18.59897754	      2.03477321	    -20.75435654	      9.66450683	      9.47646362	     -0.00000000	     -0.00000000	      0.16867746	    -10.45973900	     12.42995762	      0.00000000	    -25.01941231	     -4.82049923	     -2.78659869
      1.00000000	     10.88727843	      3.74906336	     -1.87418342	      0.63834099	      0.95229446	      0.20469326	     11.55494467	    -24.19193410	    -32.01282146	    -68.54162338	     -3.99141773	      0.00000000	      0.00000000	     -1.19627700	     -5.66887857	     14.22802616	      0.00000000	    -18.99214550	      1.88809481	    -20.78840346	      9.67433622	      9.49384218	      0.00000000	      0.00000000	      0.16884902	    -10.13802570	     12.91379740	      0.00000000	    -25.03250153	     -4.49563963	     -2.75001232
      1.00500000	     10.83893649	      3.65799825	     -1.48891438	      0.64441824	      0.95232535	      0.20387586	     11.96398698	    -24.00283049	    -31.66206995	    -67.65370687	     -2.99012040	     -0.00000000	     -0.00000000	     -1.18077994	     -5.17275791	     14.60980730	      0.00000000	    -19.38484046	      1.73496276	    -20.73703037	      9.68295697	      9.50568317	      0.00000000	      0.00000000	      0.16899948	     -9.78795344	     13.35603556	     -0.00000000	    -25.06056374	     -4.17831919	     -2.87919940
      1.01000000	     10.80290458	      3.57173520	     -1.11349021	      0.65046195	      0.95232562	      0.20308709	     12.33250620	    -23.81537630	    -31.22327093	    -66.68385718	     -1.90213330	      0.00000000	      0.00000000	     -1.16385287	     -4.72463331	     14.94076773	     -0.00000000	    -19.78098429	      1.58118808	    -20.67031445	      9.68875209	      9.51601087	      0.00000000	      0.00000000	      0.16910062	     -9.44228967	     13.76912255	      0.00000000	    -25.10583758	     -3.81565265	     -2.79925802
      1.01500000	     10.75536590	      3.54316832	     -0.71006965	      0.65651365	      0.95222886	      0.20217843	     12.67103512	    -23.72910456	    -30.72859349	    -65.65362054	     -0.70812166	      0.00000000	      0.00000000	     -1.14587184	     -4.28920049	     15.17594500	     -0.00000000	    -20.15651483	      1.48814887	    -20.53615855	      9.69423481	      9.52032650	      0.00000000	      0.00000000	      0.16919632	     -9.12175909	     14.10666087	      0.00000000	    -25.14050866	     -3.57070989	     -3.03496227
      1.02000000	     10.68761364	      3.55649769	     -0.40690224	      0.66257423	      0.95197100	      0.20151060	     13.08763979	    -23.66725618	    -30.20211263	    -64.61430038	      0.39687798	      0.00000000	      0.00000000	     -1.12773229	     -3.87325720	     15.40957754	      0.00000000	    -20.51315772	      1.44812403	    -20.45544536	      9.69947189	      9.52536728	      0.00000000	      0.00000000	      0.16928772	     -8.79215249	     14.44793842	      0.00000000	    -25.14885625	     -3.55312190	     -3.60400514
      1.02500000	     10.70556697	      3.46638248	      0.04751024	      0.66860982	      0.95190266	      0.20056033	     13.23120138	    -23.51816482	    -29.94052175	    -63.38096921	      1.47206030	      0.00000000	      0.00000000	     -1.10620660	     -3.53326450	     15.63656740	     -0.00000000	    -20.94920804	      1.25261837	    -20.20712462	      9.70308775	      9.53246561	      0.00000000	      0.00000000	      0.16935083	     -8.42804382	     14.69951874	      0.00000000	    -25.25875264	     -3.12676430	     -3.57958188
      1.03000000	     10.66343006	      3.47062635	      0.37431655	      0.67465857	      0.95158453	      0.19987682	     13.53821816	    -23.43956807	    -29.47235216	    -62.17055002	      2.54897930	      0.00000000	      0.00000000	     -1.08508080	     -3.18806312	     15.77747172	      0.00000000	    -21.32775158	      1.18355835	    -20.05354284	      9.70667397	      9.53739655	      0.00000000	      0.00000000	      0.16941342	     -8.10303457	     14.95198416	      0.00000000	    -25.30636220	     -3.03086069	     -3.97133850
      1.03500000	     10.66828677	      3.42940566	      0.76848331	      0.68070173	      0.95133732	      0.19905130	     13.69179208	    -23.32795809	    -29.19331614	    -60.83339571	      3.55662508	     -0.00000000	     -0.00000000	     -1.06174305	     -2.91060827	     15.90954218	      0.00000000	    -21.74849649	      1.04280280	    -19.80977447	      9.70902840	      9.54212143	     -0.00000000	     -0.00000000	      0.16945451	     -7.74937618	     15.14328497	     -0.00000000	    -25.40675302	     -2.77043396	     -4.18078602
      1.04000000	     10.68597454	      3.39829517	      1.16364160	      0.68673647	      0.95104383	      0.19824722	     13.80770541	    -23.22239640	    -29.01035585	    -59.43469829	      4.46994928	      0.00000000	      0.00000000	     -1.03733118	     -2.66916353	     16.03513342	     -0.00000000	    -22.17946487	      0.90302987	    -19.54152313	      9.71137037	      9.54522528	      0.00000000	      0.00000000	      0.16949539	     -7.39957994	     15.30819818	     -0.00000000	    -25.51872154	     -2.51529722	     -4.38380376
